<svg width="25" height="26" viewBox="0 0 25 26" fill="none" xmlns="http://www.w3.org/2000/svg">
<path fill-rule="evenodd" clip-rule="evenodd" d="M5.80845 20.6C5.80845 19.555 6.65372 18.7 7.69843 18.7C8.74314 18.7 9.59791 19.555 9.59791 20.6C9.59791 21.645 8.74314 22.5 7.69843 22.5C6.65372 22.5 5.80845 21.645 5.80845 20.6ZM2.94974 5.4C2.42738 5.4 2 4.9725 2 4.45C2 3.9275 2.42738 3.5 2.94974 3.5H4.50731C4.68649 3.49971 4.86205 3.55049 5.01343 3.64639C5.16481 3.74229 5.28574 3.87934 5.36207 4.0415L5.9984 5.4H20.0545C20.2192 5.40008 20.3811 5.44318 20.524 5.52504C20.667 5.60689 20.7861 5.72467 20.8695 5.8667C20.953 6.00874 20.998 6.17011 20.9999 6.33485C21.0019 6.4996 20.9608 6.66201 20.8808 6.806L17.4807 12.9715C17.1578 13.5605 16.531 13.95 15.8187 13.95H8.74314L7.69843 15.85H18.1456C18.6679 15.85 19.0953 16.2775 19.0953 16.8C19.0953 17.3225 18.6679 17.75 18.1456 17.75H7.69843C6.25483 17.75 5.34308 16.2015 6.03639 14.9285L7.31854 12.6105L3.89948 5.4H2.94974ZM15.3058 20.6C15.3058 19.555 16.1511 18.7 17.1958 18.7C18.2405 18.7 19.0953 19.555 19.0953 20.6C19.0953 21.645 18.2405 22.5 17.1958 22.5C16.1511 22.5 15.3058 21.645 15.3058 20.6ZM10 9.38091L11.5455 10.8806L16 6.5L17 7.50777L11.5455 12.8809L9 10.3734L10 9.38091Z" fill="#008ACE"/>
</svg>
