<svg width="25" height="26" viewBox="0 0 25 26" fill="none" xmlns="http://www.w3.org/2000/svg">
<path d="M11.0664 13.4274C12.1085 14.5069 13.3693 15.3403 14.7604 15.8691L16.6423 14.3399C16.6981 14.3006 16.7643 14.2796 16.832 14.2796C16.8998 14.2796 16.9659 14.3006 17.0217 14.3399L20.5161 16.6388C20.6487 16.7203 20.761 16.8321 20.8441 16.9655C20.9271 17.0989 20.9787 17.2501 20.9947 17.4073C21.0106 17.5646 20.9906 17.7234 20.9361 17.8714C20.8817 18.0193 20.7942 18.1523 20.6808 18.2598L19.0434 19.9114C18.809 20.148 18.5208 20.3216 18.2046 20.4168C17.8884 20.512 17.554 20.5257 17.2314 20.4568C14.0127 19.778 11.046 18.1882 8.6703 15.8691C6.34732 13.527 4.73983 10.5468 4.04282 7.29007C3.97397 6.96569 3.98834 6.62864 4.08454 6.3116C4.18075 5.99455 4.35552 5.70826 4.59193 5.48047L6.28917 3.80849C6.3942 3.69828 6.52229 3.61376 6.66384 3.56125C6.80539 3.50875 6.95674 3.48963 7.10655 3.50532C7.25636 3.52101 7.40076 3.57111 7.52892 3.65186C7.65709 3.73261 7.76571 3.84192 7.84664 3.97161L10.1729 7.49397C10.213 7.54928 10.2346 7.61629 10.2346 7.68512C10.2346 7.75396 10.213 7.82097 10.1729 7.87628L8.64035 9.75725C9.17228 11.1493 10.001 12.4031 11.0664 13.4274Z" fill="#008ACE"/>
</svg>
