<svg width="25" height="26" viewBox="0 0 25 26" fill="none" xmlns="http://www.w3.org/2000/svg">
<path d="M15.6876 7.15621C15.6875 6.53307 15.9066 5.92974 16.3064 5.45179C16.7063 4.97383 17.2616 4.65168 17.875 4.5417C18.4884 4.43172 19.121 4.54091 19.662 4.85017C20.2031 5.15943 20.6182 5.64906 20.8346 6.23341C21.0511 6.81775 21.0552 7.4596 20.8461 8.04664C20.6371 8.63369 20.2283 9.12856 19.6912 9.44467C19.1542 9.76078 18.523 9.87799 17.9082 9.77581C17.2935 9.67363 16.7342 9.35856 16.3283 8.88572L9.19051 12.2003C9.3546 12.7202 9.3546 13.2781 9.19051 13.798L16.3283 17.1126C16.7573 16.6136 17.3564 16.2917 18.0093 16.2092C18.6622 16.1267 19.3226 16.2895 19.8623 16.6661C20.402 17.0426 20.7827 17.6061 20.9306 18.2473C21.0785 18.8885 20.983 19.5618 20.6628 20.1366C20.3425 20.7115 19.8202 21.147 19.1971 21.3587C18.5739 21.5705 17.8944 21.5434 17.2901 21.2827C16.6858 21.0221 16.1998 20.5464 15.9263 19.9478C15.6528 19.3493 15.6113 18.6706 15.8098 18.0432L8.67202 14.7287C8.31867 15.1404 7.84769 15.434 7.32243 15.5701C6.79717 15.7062 6.24283 15.6782 5.73397 15.4898C5.22512 15.3014 4.78617 14.9618 4.47618 14.5165C4.16618 14.0712 4 13.5417 4 12.9991C4 12.4566 4.16618 11.9271 4.47618 11.4818C4.78617 11.0365 5.22512 10.6969 5.73397 10.5085C6.24283 10.3201 6.79717 10.2921 7.32243 10.4282C7.84769 10.5642 8.31867 10.8579 8.67202 11.2696L15.8098 7.9551C15.7285 7.6966 15.6873 7.42718 15.6876 7.15621Z" fill="#008ACE"/>
</svg>
